<svg xmlns="http://www.w3.org/2000/svg" version="1.1" xmlns:xlink="http://www.w3.org/1999/xlink" width="36" height="41"><svg viewBox="0 0 36 41" version="1.1" xmlns="http://www.w3.org/2000/svg" xmlns:xlink="http://www.w3.org/1999/xlink"><defs><filter x="-6.9%" y="-6.2%" width="113.9%" height="112.5%" filterUnits="objectBoundingBox" id="SvgjsFilter1013"><feOffset dx="0" dy="1" in="SourceAlpha" result="shadowOffsetOuter1"></feOffset><feColorMatrix values="0 0 0 0 1   0 0 0 0 1   0 0 0 0 1  0 0 0 0.5 0" type="matrix" in="shadowOffsetOuter1" result="shadowMatrixOuter1"></feColorMatrix><feMerge><feMergeNode in="shadowMatrixOuter1"></feMergeNode><feMergeNode in="SourceGraphic"></feMergeNode></feMerge></filter></defs><g id="SvgjsG1012" stroke="none" stroke-width="1" fill="none" fill-rule="evenodd"><g id="SvgjsG1011" transform="translate(-247.000000, -28.000000)"><g id="SvgjsG1010"><g id="SvgjsG1009" filter="url(#filter-1)" transform="translate(247.000000, 28.000000)"><path d="M31.0772324,0 L17.9995287,0 L4.91963152,0 L0.878090258,12.3595625 C-1.57973714,19.9490284 1.28717978,27.9377721 7.41694209,32.3606244 L17.9973352,40 L28.5810186,32.3595625 C35.040904,27.6956568 37.460345,19.5593076 35.1341282,12.3977912 C35.1242574,12.364872 31.0772324,0 31.0772324,0" id="SvgjsPath1008" fill="#041433"></path><polygon id="SvgjsPolygon1007" fill="#EFF1F5" points="18 0 22.0129547 12.6047918 35 12.6047918 24.4929802 20.3952082 28.5070198 33 18 25.2106682 7.49298022 33 11.5059349 20.3952082 1 12.6047918 13.9870453 12.6047918"></polygon></g></g></g></g></svg><style>@media (prefers-color-scheme: light) { :root { filter: none; } }
@media (prefers-color-scheme: dark) { :root { filter: none; } }
</style></svg>